<?xml version="1.0" encoding="utf-8"?>
<!-- Generator: Adobe Illustrator 19.0.0, SVG Export Plug-In . SVG Version: 6.00 Build 0)  -->
<svg version="1.1" id="Layer_1" xmlns="http://www.w3.org/2000/svg" xmlns:xlink="http://www.w3.org/1999/xlink" x="0px" y="0px"
	 viewBox="0 0 196 70" style="enable-background:new 0 0 196 70;" xml:space="preserve">
<style type="text/css">
	.st0{fill:#374EA2;}
	.st1{fill:#FFFFFF;}
</style>
<g id="XMLID_923_">
	<g id="XMLID_926_">
		<path id="XMLID_1_" class="st0" d="M174,70H22C9.8,70,0,60.2,0,48V22C0,9.8,9.8,0,22,0h152c12.1,0,22,9.8,22,22v26
			C196,60.2,186.1,70,174,70z"/>
	</g>
	<g id="XMLID_924_">
		<path id="XMLID_2_" class="st1" d="M43.3,51l-8.2-13.7H32V51h-7V15.9h13.4c4.1,0,7.2,1,9.3,3c2.1,2,3.2,4.6,3.2,7.9
			c0,2.7-0.7,4.9-2.2,6.7c-1.5,1.8-3.6,3-6.4,3.6L51,51H43.3z M32,32.5h5.8c4,0,6-1.8,6-5.3c0-1.7-0.5-3-1.5-4
			c-1-0.9-2.5-1.4-4.6-1.4H32V32.5z"/>
		<path id="XMLID_5_" class="st1" d="M62.8,15.9V51h-7V15.9H62.8z"/>
		<path id="XMLID_7_" class="st1" d="M99.2,51h-7L76.5,27.2V51h-7V15.9h7L92.2,40V15.9h7V51z"/>
		<path id="XMLID_9_" class="st1" d="M132.5,18.7c2.8,2.1,4.6,4.9,5.4,8.5h-7.4c-0.7-1.6-1.8-2.9-3.3-3.8c-1.5-0.9-3.3-1.4-5.3-1.4
			c-2,0-3.8,0.5-5.4,1.4c-1.6,0.9-2.8,2.3-3.6,4c-0.9,1.7-1.3,3.7-1.3,6.1c0,3.7,1,6.5,3,8.6c2,2.1,4.7,3.1,8.1,3.1
			c2.5,0,4.7-0.7,6.5-2.2s3-3.6,3.5-6.2h-11.9v-5h17.8v6.8c-0.5,2.3-1.5,4.5-2.9,6.4c-1.4,2-3.3,3.5-5.7,4.7c-2.3,1.2-5,1.8-8,1.8
			c-3.4,0-6.5-0.8-9.1-2.3c-2.6-1.5-4.7-3.6-6.1-6.3c-1.4-2.7-2.2-5.8-2.2-9.3s0.7-6.6,2.2-9.3c1.4-2.7,3.5-4.8,6.1-6.3
			c2.6-1.5,5.7-2.3,9.1-2.3C126.1,15.6,129.7,16.6,132.5,18.7z"/>
		<path id="XMLID_11_" class="st1" d="M168.7,17.7c2.7,1.5,4.8,3.7,6.3,6.4s2.3,5.8,2.3,9.3c0,3.4-0.8,6.5-2.3,9.3
			c-1.5,2.8-3.6,4.9-6.3,6.4c-2.7,1.5-5.6,2.3-8.9,2.3c-3.3,0-6.3-0.8-8.9-2.3c-2.7-1.5-4.8-3.7-6.3-6.4c-1.5-2.8-2.3-5.9-2.3-9.3
			c0-3.4,0.8-6.5,2.3-9.3c1.5-2.7,3.6-4.9,6.3-6.4c2.7-1.5,5.6-2.3,8.9-2.3C163.1,15.4,166,16.2,168.7,17.7z M154.4,23.3
			c-1.6,0.9-2.8,2.3-3.7,4c-0.9,1.7-1.3,3.8-1.3,6.1c0,2.3,0.4,4.4,1.3,6.1c0.9,1.7,2.1,3.1,3.7,4c1.6,0.9,3.4,1.4,5.4,1.4
			s3.9-0.5,5.4-1.4c1.6-0.9,2.8-2.3,3.7-4c0.9-1.7,1.3-3.8,1.3-6.1c0-2.3-0.4-4.4-1.3-6.1c-0.9-1.7-2.1-3.1-3.7-4s-3.4-1.4-5.4-1.4
			S155.9,22.4,154.4,23.3z"/>
	</g>
</g>
</svg>
